<svg xmlns="http://www.w3.org/2000/svg"
shape-rendering="geometricPrecision"
width="4000" height="4000" viewBox="0 0 1024 1024">
  <metadata>null</metadata>

<path d="
M 380.475 478.114
C 381.063 472.573 381.395 467.04 382.471 461.552
C 385.635 445.426 391.807 430.278 400.475 416.344
C 409.945 401.119 423.027 387.371 438.341 377.931
C 455.721 367.218 474.871 359.862 495.331 358.008
C 513.776 356.337 532.705 358.416 550.161 364.753
C 593.023 380.312 625.579 419.14 633.234 464.126
C 636.28 482.022 635.169 500.522 630.695 518.072
C 626.753 533.536 619.794 548.888 610.134 561.623
C 611.991 562.951 613.546 564.78 615.188 566.361
C 618.014 569.084 620.962 571.734 623.647 574.597
C 624.597 574.503 625.489 573.822 626.442 573.602
C 628.84 573.05 631.561 573.199 633.862 574.067
C 636.618 575.106 638.638 577.188 640.725 579.179
C 643.925 582.234 647.029 585.38 650.136 588.53
C 660.498 599.035 671.076 609.362 681.631 619.673
C 688.185 626.075 695.677 632.007 696.29 641.821
C 697.343 658.702 680.618 671.552 664.571 667.663
C 657.676 665.992 653.343 660.558 648.499 655.793
C 640.057 647.487 631.581 639.215 623.091 630.959
C 618.577 626.569 614.031 622.165 609.416 617.879
C 606.04 614.743 602.419 611.467 601.082 606.899
C 600.451 604.743 600.356 602.15 600.747 599.935
C 600.956 598.755 601.998 597.336 601.889 596.181
C 599.291 593.173 596.224 590.498 593.411 587.689
C 592.078 586.357 590.631 584.37 588.953 583.528
C 585.427 587.418 580.388 590.472 575.956 593.217
C 565.21 599.873 553.809 605.363 541.578 608.679
C 529.138 612.052 516.258 613.713 503.356 613.221
C 450.797 611.216 403.97 576.37 386.816 526.687
C 381.48 511.233 379.625 494.39 380.475 478.114 Z
M 413.474 475.615
C 412.314 487.061 413.631 498.429 416.265 509.558
C 426.745 553.845 471.03 583.732 515.699 580.286
C 533.615 578.904 550.774 571.679 565.091 561.002
C 575.008 553.606 583.436 543.547 589.525 532.833
C 596.25 521.001 600.236 508.044 601.616 494.515
C 602.876 482.164 601.683 469.014 597.883 457.187
C 591.651 437.792 579.867 420.418 563.399 408.298
C 530.411 384.021 482.716 384.302 450.267 409.528
C 440.352 417.236 432.061 426.764 425.716 437.592
C 418.968 449.109 414.816 462.362 413.474 475.615 Z"
opacity="1" fill="rgb(41,25,67)" fill-rule="evenodd" />
<path d="
M 434.262 482.844
C 442.931 478.145 451.975 474.13 460.672 469.474
C 464.49 467.43 468.352 465.492 472.199 463.506
C 474.457 462.339 476.684 460.926 479.118 460.159
C 479.268 462.594 479.101 465.053 479.139 467.499
C 479.16 468.865 479.515 470.631 479.087 471.945
C 471.09 475.786 463.287 480.016 455.33 483.934
C 453.48 484.844 451.619 485.749 449.794 486.703
C 449.344 486.938 447.781 487.312 447.759 487.783
C 449.933 489.58 453.47 490.713 456.004 492.039
C 463.512 495.967 471.677 499.258 478.894 503.661
C 479.384 504.312 479.109 505.885 479.113 506.69
C 479.126 509.256 479.744 512.566 479.078 515.04
C 474.417 513.911 469.694 510.579 465.459 508.382
C 455.378 503.153 445.308 497.407 434.833 493.01
C 434.324 492.152 434.538 490.735 434.503 489.727
C 434.426 487.436 434.479 485.127 434.262 482.844 Z"
opacity="1" fill="rgb(40,21,65)" fill-rule="evenodd" />
<path d="
M 487.916 531.05
C 494.402 511.22 500.427 491.209 506.768 471.323
C 508.678 465.331 510.632 459.337 512.442 453.316
C 513.448 449.968 514.192 445.939 515.928 442.891
C 519.342 443.004 523.16 443.218 526.549 442.853
C 525.276 449.968 522.039 457.076 519.93 464
C 515.852 477.392 511.762 490.806 507.398 504.105
C 505.466 509.993 503.486 515.977 501.852 521.954
C 501.254 524.145 500.531 526.299 499.934 528.49
C 499.584 529.772 499.403 531.287 498.714 532.437
C 495.001 532.341 491.255 532.766 487.57 532.646
C 487.685 532.114 487.798 531.582 487.916 531.05 Z"
opacity="1" fill="rgb(41,22,64)" fill-rule="evenodd" />
<path d="
M 535.909 460.771
C 536.499 460.346 538.006 461.294 538.715 461.652
C 541.433 463.027 544.117 464.463 546.816 465.875
C 557.845 471.644 568.829 477.539 580.016 482.991
C 579.865 486.108 580.765 489.693 580 492.72
C 571.069 497.503 561.927 501.999 552.918 506.652
C 547.498 509.45 541.934 513.467 536.126 515.326
C 535.749 514.032 536.06 512.444 536.055 511.106
C 536.046 508.728 535.542 506.044 535.981 503.709
C 542.958 499.456 550.672 496.024 557.969 492.343
C 560.133 491.252 562.327 490.22 564.48 489.108
C 565.064 488.806 566.122 488.569 566.465 487.99
C 560.662 484.353 554.259 481.415 548.135 478.354
C 544.26 476.418 540.44 473.869 536.283 472.597
C 535.857 471.449 536.101 469.926 536.092 468.696
C 536.073 466.063 536.047 463.399 535.909 460.771 Z"
opacity="1" fill="rgb(41,22,65)" fill-rule="evenodd" />

</svg>